<svg width="24" height="24" viewBox="0 0 24 24" fill="none" xmlns="http://www.w3.org/2000/svg">
<path d="M12 21.5813C11.69 21.5813 11.39 21.5413 11.14 21.4513C7.32 20.1413 1.25 15.4913 1.25 8.6213C1.25 5.12131 4.08 2.2813 7.56 2.2813C9.25 2.2813 10.83 2.9413 12 4.1213C12.5808 3.53517 13.2726 3.07058 14.0349 2.75467C14.7972 2.43876 15.6148 2.27784 16.44 2.2813C19.92 2.2813 22.75 5.13131 22.75 8.6213C22.75 15.5013 16.68 20.1413 12.86 21.4513C12.61 21.5413 12.31 21.5813 12 21.5813ZM7.56 3.7813C4.91 3.7813 2.75 5.9513 2.75 8.6213C2.75 15.4513 9.32 19.2513 11.63 20.0413C11.81 20.1013 12.2 20.1013 12.38 20.0413C14.68 19.2513 21.26 15.4613 21.26 8.6213C21.26 5.9513 19.1 3.7813 16.45 3.7813C14.93 3.7813 13.52 4.4913 12.61 5.7213C12.33 6.1013 11.69 6.1013 11.41 5.7213C10.9656 5.11838 10.3855 4.62857 9.71668 4.29154C9.04781 3.9545 8.30898 3.7797 7.56 3.7813Z" fill="#1F2937"/>
</svg>
